{
  "accessors": [
    {
      "name": "Extrude.1-Mesh_0_positions",
      "componentType": 5126,
      "count": 540,
      "min": [
        -351.7928161621094,
        -5,
        -10.379525184631348
      ],
      "max": [
        352.353515625,
        111,
        -9.379525184631348
      ],
      "type": "VEC3",
      "bufferView": 0,
      "byteOffset": 0
    },
    {
      "name": "Extrude.1-Mesh_0_normals",
      "componentType": 5126,
      "count": 540,
      "min": [
        -1,
        -1,
        0
      ],
      "max": [
        0.9999920129776001,
        1,
        0
      ],
      "type": "VEC3",
      "bufferView": 1,
      "byteOffset": 0
    },
    {
      "name": "Extrude.1-Mesh_0_texcoords",
      "componentType": 5126,
      "count": 540,
      "min": [
        0,
        0
      ],
      "max": [
        1,
        1
      ],
      "type": "VEC2",
      "bufferView": 2,
      "byteOffset": 0
    },
    {
      "name": "Extrude.1-Mesh_0_indices",
      "componentType": 5123,
      "count": 1284,
      "min": [
        0
      ],
      "max": [
        539
      ],
      "type": "SCALAR",
      "bufferView": 3,
      "byteOffset": 0
    },
    {
      "name": "Rounding_1-Mesh_0_positions",
      "componentType": 5126,
      "count": 540,
      "min": [
        -351.7928161621094,
        -5,
        -9.379525184631348
      ],
      "max": [
        352.353515625,
        111,
        -4.379525661468506
      ],
      "type": "VEC3",
      "bufferView": 0,
      "byteOffset": 6480
    },
    {
      "name": "Rounding_1-Mesh_0_normals",
      "componentType": 5126,
      "count": 540,
      "min": [
        -0.8119169473648071,
        -0.932611882686615,
        -1
      ],
      "max": [
        0.7463253140449524,
        0.8902717232704163,
        0.7330652475357056
      ],
      "type": "VEC3",
      "bufferView": 1,
      "byteOffset": 6480
    },
    {
      "name": "Rounding_1-Mesh_0_texcoords",
      "componentType": 5126,
      "count": 540,
      "min": [
        0,
        0
      ],
      "max": [
        1,
        1
      ],
      "type": "VEC2",
      "bufferView": 2,
      "byteOffset": 4320
    },
    {
      "name": "Rounding_1-Mesh_0_indices",
      "componentType": 5123,
      "count": 1272,
      "min": [
        0
      ],
      "max": [
        539
      ],
      "type": "SCALAR",
      "bufferView": 3,
      "byteOffset": 2568
    },
    {
      "name": "Rounding_2-Mesh_0_positions",
      "componentType": 5126,
      "count": 540,
      "min": [
        -351.7928161621094,
        -5,
        -15.379525184631348
      ],
      "max": [
        352.353515625,
        111,
        -10.379525184631348
      ],
      "type": "VEC3",
      "bufferView": 0,
      "byteOffset": 12960
    },
    {
      "name": "Rounding_2-Mesh_0_normals",
      "componentType": 5126,
      "count": 540,
      "min": [
        -0.8119169473648071,
        -0.932611882686615,
        -0.7330687046051025
      ],
      "max": [
        0.7463253736495972,
        0.8902716636657715,
        0.8016958832740784
      ],
      "type": "VEC3",
      "bufferView": 1,
      "byteOffset": 12960
    },
    {
      "name": "Rounding_2-Mesh_0_texcoords",
      "componentType": 5126,
      "count": 540,
      "min": [
        0,
        0
      ],
      "max": [
        1,
        1
      ],
      "type": "VEC2",
      "bufferView": 2,
      "byteOffset": 8640
    },
    {
      "name": "Rounding_2-Mesh_0_indices",
      "componentType": 5123,
      "count": 1272,
      "min": [
        0
      ],
      "max": [
        539
      ],
      "type": "SCALAR",
      "bufferView": 3,
      "byteOffset": 5112
    },
    {
      "name": "Extrude-Mesh_0_positions",
      "componentType": 5126,
      "count": 536,
      "min": [
        -343,
        0,
        -20
      ],
      "max": [
        343,
        106,
        0
      ],
      "type": "VEC3",
      "bufferView": 0,
      "byteOffset": 19440
    },
    {
      "name": "Extrude-Mesh_0_normals",
      "componentType": 5126,
      "count": 536,
      "min": [
        -1,
        -1,
        0
      ],
      "max": [
        1,
        1,
        0
      ],
      "type": "VEC3",
      "bufferView": 1,
      "byteOffset": 19440
    },
    {
      "name": "Extrude-Mesh_0_texcoords",
      "componentType": 5126,
      "count": 536,
      "min": [
        0,
        0
      ],
      "max": [
        1,
        1
      ],
      "type": "VEC2",
      "bufferView": 2,
      "byteOffset": 12960
    },
    {
      "name": "Extrude-Mesh_0_indices",
      "componentType": 5123,
      "count": 1284,
      "min": [
        0
      ],
      "max": [
        535
      ],
      "type": "SCALAR",
      "bufferView": 3,
      "byteOffset": 7656
    },
    {
      "name": "Cap_1-Mesh_0_positions",
      "componentType": 5126,
      "count": 214,
      "min": [
        -343,
        0,
        0
      ],
      "max": [
        343,
        106,
        0
      ],
      "type": "VEC3",
      "bufferView": 0,
      "byteOffset": 25872
    },
    {
      "name": "Cap_1-Mesh_0_normals",
      "componentType": 5126,
      "count": 214,
      "min": [
        0,
        0,
        1
      ],
      "max": [
        0,
        0,
        1
      ],
      "type": "VEC3",
      "bufferView": 1,
      "byteOffset": 25872
    },
    {
      "name": "Cap_1-Mesh_0_texcoords",
      "componentType": 5126,
      "count": 214,
      "min": [
        0,
        0
      ],
      "max": [
        1,
        0.1545189619064331
      ],
      "type": "VEC2",
      "bufferView": 2,
      "byteOffset": 17248
    },
    {
      "name": "Cap_1-Mesh_0_indices",
      "componentType": 5123,
      "count": 618,
      "min": [
        0
      ],
      "max": [
        213
      ],
      "type": "SCALAR",
      "bufferView": 3,
      "byteOffset": 10224
    },
    {
      "name": "Cap_2-Mesh_0_positions",
      "componentType": 5126,
      "count": 214,
      "min": [
        -343,
        0,
        -20
      ],
      "max": [
        343,
        106,
        -20
      ],
      "type": "VEC3",
      "bufferView": 0,
      "byteOffset": 28440
    },
    {
      "name": "Cap_2-Mesh_0_normals",
      "componentType": 5126,
      "count": 214,
      "min": [
        0,
        0,
        -1
      ],
      "max": [
        0,
        0,
        1
      ],
      "type": "VEC3",
      "bufferView": 1,
      "byteOffset": 28440
    },
    {
      "name": "Cap_2-Mesh_0_texcoords",
      "componentType": 5126,
      "count": 214,
      "min": [
        0,
        0
      ],
      "max": [
        1,
        0.1545189619064331
      ],
      "type": "VEC2",
      "bufferView": 2,
      "byteOffset": 18960
    },
    {
      "name": "Cap_2-Mesh_0_indices",
      "componentType": 5123,
      "count": 618,
      "min": [
        0
      ],
      "max": [
        213
      ],
      "type": "SCALAR",
      "bufferView": 3,
      "byteOffset": 11460
    }
  ],
  "asset": {
    "generator": "obj2gltf",
    "version": "2.0"
  },
  "buffers": [
    {
      "name": "jacky",
      "byteLength": 95384,
      "uri": "data:application/octet-stream;base64,"
    }
  ],
  "bufferViews": [
    {
      "name": "bufferView_0",
      "buffer": 0,
      "byteLength": 31008,
      "byteOffset": 0,
      "byteStride": 12,
      "target": 34962
    },
    {
      "name": "bufferView_1",
      "buffer": 0,
      "byteLength": 31008,
      "byteOffset": 31008,
      "byteStride": 12,
      "target": 34962
    },
    {
      "name": "bufferView_2",
      "buffer": 0,
      "byteLength": 20672,
      "byteOffset": 62016,
      "byteStride": 8,
      "target": 34962
    },
    {
      "name": "bufferView_3",
      "buffer": 0,
      "byteLength": 12696,
      "byteOffset": 82688,
      "target": 34963
    }
  ],
  "materials": [
    {
      "name": "Glow White 2",
      "pbrMetallicRoughness": {
        "baseColorFactor": [
          1,
          1,
          1,
          1
        ],
        "metallicFactor": 0,
        "roughnessFactor": 1
      },
      "emissiveFactor": [
        0,
        0,
        0
      ],
      "alphaMode": "OPAQUE",
      "doubleSided": false
    },
    {
      "name": "Plastic Dark  Procedural",
      "pbrMetallicRoughness": {
        "baseColorFactor": [
          1,
          1,
          1,
          1
        ],
        "metallicFactor": 0,
        "roughnessFactor": 0.925
      },
      "emissiveFactor": [
        0,
        0,
        0
      ],
      "alphaMode": "OPAQUE",
      "doubleSided": false
    }
  ],
  "meshes": [
    {
      "name": "Extrude.1-Mesh",
      "primitives": [
        {
          "attributes": {
            "POSITION": 0,
            "NORMAL": 1,
            "TEXCOORD_0": 2
          },
          "indices": 3,
          "material": 0,
          "mode": 4
        }
      ]
    },
    {
      "name": "Rounding_1-Mesh",
      "primitives": [
        {
          "attributes": {
            "POSITION": 4,
            "NORMAL": 5,
            "TEXCOORD_0": 6
          },
          "indices": 7,
          "material": 0,
          "mode": 4
        }
      ]
    },
    {
      "name": "Rounding_2-Mesh",
      "primitives": [
        {
          "attributes": {
            "POSITION": 8,
            "NORMAL": 9,
            "TEXCOORD_0": 10
          },
          "indices": 11,
          "material": 0,
          "mode": 4
        }
      ]
    },
    {
      "name": "Extrude-Mesh",
      "primitives": [
        {
          "attributes": {
            "POSITION": 12,
            "NORMAL": 13,
            "TEXCOORD_0": 14
          },
          "indices": 15,
          "material": 1,
          "mode": 4
        }
      ]
    },
    {
      "name": "Cap_1-Mesh",
      "primitives": [
        {
          "attributes": {
            "POSITION": 16,
            "NORMAL": 17,
            "TEXCOORD_0": 18
          },
          "indices": 19,
          "material": 1,
          "mode": 4
        }
      ]
    },
    {
      "name": "Cap_2-Mesh",
      "primitives": [
        {
          "attributes": {
            "POSITION": 20,
            "NORMAL": 21,
            "TEXCOORD_0": 22
          },
          "indices": 23,
          "material": 1,
          "mode": 4
        }
      ]
    }
  ],
  "nodes": [
    {
      "name": "Extrude.1",
      "mesh": 0
    },
    {
      "name": "Rounding_1",
      "mesh": 1
    },
    {
      "name": "Rounding_2",
      "mesh": 2
    },
    {
      "name": "Extrude",
      "mesh": 3
    },
    {
      "name": "Cap_1",
      "mesh": 4
    },
    {
      "name": "Cap_2",
      "mesh": 5
    }
  ],
  "scene": 0,
  "scenes": [
    {
      "nodes": [
        0,
        1,
        2,
        3,
        4,
        5
      ]
    }
  ]
}